<svg xmlns="http://www.w3.org/2000/svg" xmlns:xlink="http://www.w3.org/1999/xlink" width="1080" zoomAndPan="magnify" viewBox="0 0 810 809.999993" height="1080" preserveAspectRatio="xMidYMid meet" version="1.0"><defs><clipPath id="41a0c47d65"><path d="M 413 146.765625 L 667 146.765625 L 667 401 L 413 401 Z M 413 146.765625 " clip-rule="nonzero"/></clipPath><clipPath id="133d32300f"><path d="M 144 167 L 640 167 L 640 663.515625 L 144 663.515625 Z M 144 167 " clip-rule="nonzero"/></clipPath></defs><path fill="#000000" d="M 413.089844 234.355469 C 413.089844 233.832031 413.140625 233.316406 413.242188 232.808594 C 413.34375 232.296875 413.492188 231.800781 413.691406 231.320312 C 413.890625 230.839844 414.136719 230.382812 414.425781 229.953125 C 414.714844 229.519531 415.042969 229.117188 415.410156 228.75 C 415.777344 228.382812 416.175781 228.054688 416.609375 227.765625 C 417.042969 227.476562 417.5 227.230469 417.980469 227.03125 C 418.460938 226.832031 418.953125 226.683594 419.464844 226.582031 C 419.976562 226.480469 420.488281 226.429688 421.011719 226.429688 C 423.722656 226.433594 426.429688 226.5 429.140625 226.636719 C 431.847656 226.773438 434.550781 226.976562 437.25 227.242188 C 439.945312 227.511719 442.636719 227.847656 445.320312 228.246094 C 448 228.648438 450.671875 229.113281 453.328125 229.644531 C 455.988281 230.175781 458.632812 230.769531 461.261719 231.433594 C 463.890625 232.09375 466.503906 232.816406 469.097656 233.605469 C 471.691406 234.398438 474.265625 235.25 476.816406 236.164062 C 479.371094 237.078125 481.898438 238.058594 484.402344 239.097656 C 486.910156 240.136719 489.386719 241.234375 491.835938 242.398438 C 494.289062 243.558594 496.707031 244.777344 499.097656 246.058594 C 501.488281 247.339844 503.847656 248.675781 506.171875 250.070312 C 508.496094 251.46875 510.789062 252.917969 513.042969 254.425781 C 515.296875 255.933594 517.511719 257.496094 519.6875 259.113281 C 521.867188 260.730469 524.003906 262.398438 526.097656 264.121094 C 528.195312 265.839844 530.246094 267.613281 532.257812 269.433594 C 534.265625 271.257812 536.226562 273.125 538.144531 275.046875 C 540.0625 276.964844 541.933594 278.925781 543.753906 280.9375 C 545.574219 282.949219 547.34375 285 549.066406 287.097656 C 550.785156 289.195312 552.453125 291.332031 554.070312 293.511719 C 555.683594 295.691406 557.246094 297.90625 558.753906 300.164062 C 560.261719 302.417969 561.710938 304.707031 563.105469 307.035156 C 564.5 309.363281 565.835938 311.722656 567.117188 314.113281 C 568.394531 316.503906 569.617188 318.925781 570.777344 321.378906 C 571.9375 323.832031 573.035156 326.308594 574.074219 328.816406 C 575.113281 331.320312 576.089844 333.851562 577.003906 336.40625 C 577.921875 338.960938 578.773438 341.535156 579.5625 344.128906 C 580.351562 346.726562 581.074219 349.339844 581.734375 351.96875 C 582.394531 354.601562 582.992188 357.246094 583.523438 359.90625 C 584.054688 362.566406 584.519531 365.238281 584.917969 367.921875 C 585.320312 370.605469 585.652344 373.296875 585.921875 375.996094 C 586.191406 378.695312 586.390625 381.402344 586.527344 384.109375 C 586.664062 386.820312 586.730469 389.53125 586.734375 392.246094 C 586.734375 392.765625 586.683594 393.28125 586.582031 393.789062 C 586.480469 394.300781 586.332031 394.796875 586.132812 395.277344 C 585.933594 395.757812 585.6875 396.214844 585.398438 396.648438 C 585.109375 397.078125 584.78125 397.480469 584.414062 397.847656 C 584.046875 398.214844 583.648438 398.542969 583.214844 398.832031 C 582.78125 399.121094 582.324219 399.367188 581.84375 399.566406 C 581.363281 399.765625 580.871094 399.914062 580.359375 400.015625 C 579.851562 400.117188 579.335938 400.167969 578.816406 400.167969 C 578.292969 400.167969 577.78125 400.117188 577.269531 400.015625 C 576.761719 399.914062 576.265625 399.765625 575.785156 399.566406 C 575.304688 399.367188 574.847656 399.121094 574.414062 398.832031 C 573.984375 398.542969 573.582031 398.214844 573.214844 397.847656 C 572.847656 397.480469 572.519531 397.078125 572.230469 396.648438 C 571.941406 396.214844 571.695312 395.757812 571.496094 395.277344 C 571.300781 394.796875 571.148438 394.300781 571.046875 393.789062 C 570.945312 393.28125 570.894531 392.765625 570.894531 392.246094 C 570.890625 389.792969 570.828125 387.339844 570.707031 384.890625 C 570.582031 382.4375 570.402344 379.992188 570.160156 377.550781 C 569.914062 375.109375 569.613281 372.675781 569.25 370.25 C 568.890625 367.820312 568.46875 365.40625 567.988281 363 C 567.507812 360.59375 566.96875 358.199219 566.371094 355.820312 C 565.773438 353.441406 565.117188 351.078125 564.402344 348.730469 C 563.691406 346.382812 562.917969 344.054688 562.09375 341.746094 C 561.265625 339.433594 560.378906 337.148438 559.441406 334.882812 C 558.5 332.613281 557.507812 330.371094 556.457031 328.15625 C 555.40625 325.9375 554.304688 323.746094 553.148438 321.585938 C 551.992188 319.421875 550.78125 317.285156 549.519531 315.183594 C 548.257812 313.078125 546.945312 311.007812 545.582031 308.96875 C 544.21875 306.925781 542.808594 304.921875 541.347656 302.953125 C 539.886719 300.980469 538.378906 299.046875 536.820312 297.152344 C 535.265625 295.253906 533.664062 293.398438 532.015625 291.582031 C 530.371094 289.761719 528.679688 287.984375 526.945312 286.25 C 525.210938 284.515625 523.4375 282.824219 521.621094 281.175781 C 519.800781 279.53125 517.945312 277.925781 516.050781 276.371094 C 514.15625 274.8125 512.222656 273.304688 510.253906 271.84375 C 508.285156 270.378906 506.28125 268.96875 504.242188 267.601562 C 502.203125 266.238281 500.132812 264.925781 498.03125 263.664062 C 495.925781 262.402344 493.792969 261.191406 491.632812 260.035156 C 489.46875 258.878906 487.28125 257.773438 485.0625 256.722656 C 482.847656 255.671875 480.605469 254.679688 478.34375 253.738281 C 476.078125 252.796875 473.789062 251.914062 471.480469 251.085938 C 469.171875 250.257812 466.847656 249.488281 464.5 248.773438 C 462.152344 248.058594 459.792969 247.402344 457.414062 246.804688 C 455.035156 246.207031 452.644531 245.667969 450.238281 245.1875 C 447.835938 244.707031 445.417969 244.285156 442.996094 243.921875 C 440.570312 243.5625 438.136719 243.257812 435.695312 243.015625 C 433.253906 242.773438 430.8125 242.589844 428.363281 242.464844 C 425.914062 242.34375 423.460938 242.28125 421.011719 242.277344 C 420.488281 242.277344 419.976562 242.226562 419.464844 242.125 C 418.953125 242.023438 418.460938 241.875 417.980469 241.675781 C 417.5 241.476562 417.042969 241.230469 416.609375 240.941406 C 416.175781 240.652344 415.777344 240.324219 415.410156 239.957031 C 415.042969 239.589844 414.714844 239.1875 414.425781 238.757812 C 414.136719 238.324219 413.890625 237.867188 413.691406 237.386719 C 413.492188 236.90625 413.34375 236.410156 413.242188 235.898438 C 413.140625 235.390625 413.089844 234.875 413.089844 234.355469 Z M 413.089844 234.355469 " fill-opacity="1" fill-rule="nonzero"/><g clip-path="url(#41a0c47d65)"><path fill="#000000" d="M 666.605469 392.246094 C 666.605469 392.765625 666.554688 393.28125 666.453125 393.789062 C 666.351562 394.300781 666.203125 394.796875 666.003906 395.277344 C 665.804688 395.757812 665.558594 396.214844 665.269531 396.648438 C 664.984375 397.078125 664.652344 397.480469 664.285156 397.847656 C 663.917969 398.214844 663.519531 398.542969 663.085938 398.832031 C 662.652344 399.121094 662.199219 399.367188 661.71875 399.566406 C 661.238281 399.765625 660.742188 399.914062 660.230469 400.015625 C 659.722656 400.117188 659.207031 400.167969 658.6875 400.167969 C 658.167969 400.167969 657.652344 400.117188 657.140625 400.015625 C 656.632812 399.914062 656.136719 399.765625 655.65625 399.566406 C 655.175781 399.367188 654.71875 399.121094 654.285156 398.832031 C 653.855469 398.542969 653.453125 398.214844 653.085938 397.847656 C 652.71875 397.480469 652.390625 397.078125 652.101562 396.648438 C 651.8125 396.214844 651.570312 395.757812 651.371094 395.277344 C 651.171875 394.796875 651.019531 394.300781 650.917969 393.789062 C 650.816406 393.28125 650.765625 392.765625 650.765625 392.246094 C 650.765625 388.484375 650.667969 384.722656 650.480469 380.964844 C 650.296875 377.207031 650.015625 373.457031 649.644531 369.714844 C 649.273438 365.972656 648.8125 362.238281 648.257812 358.519531 C 647.703125 354.796875 647.058594 351.09375 646.324219 347.402344 C 645.589844 343.714844 644.765625 340.042969 643.847656 336.394531 C 642.933594 332.746094 641.929688 329.121094 640.835938 325.523438 C 639.742188 321.921875 638.5625 318.351562 637.296875 314.8125 C 636.027344 311.269531 634.675781 307.761719 633.234375 304.285156 C 631.792969 300.8125 630.269531 297.375 628.660156 293.972656 C 627.054688 290.574219 625.363281 287.214844 623.589844 283.894531 C 621.816406 280.578125 619.964844 277.304688 618.03125 274.078125 C 616.097656 270.851562 614.085938 267.675781 611.996094 264.546875 C 609.910156 261.421875 607.742188 258.347656 605.503906 255.324219 C 603.265625 252.300781 600.953125 249.335938 598.566406 246.429688 C 596.183594 243.519531 593.726562 240.671875 591.203125 237.886719 C 588.679688 235.097656 586.085938 232.375 583.429688 229.714844 C 580.769531 227.050781 578.046875 224.457031 575.261719 221.933594 C 572.476562 219.40625 569.632812 216.949219 566.726562 214.558594 C 563.820312 212.171875 560.859375 209.859375 557.839844 207.617188 C 554.820312 205.375 551.746094 203.207031 548.621094 201.117188 C 545.496094 199.023438 542.324219 197.011719 539.097656 195.074219 C 535.875 193.140625 532.605469 191.285156 529.289062 189.507812 C 525.976562 187.734375 522.617188 186.042969 519.21875 184.429688 C 515.824219 182.820312 512.386719 181.292969 508.914062 179.851562 C 505.441406 178.410156 501.933594 177.054688 498.394531 175.785156 C 494.855469 174.515625 491.289062 173.332031 487.691406 172.238281 C 484.09375 171.144531 480.472656 170.136719 476.828125 169.21875 C 473.179688 168.304688 469.511719 167.476562 465.824219 166.738281 C 462.140625 166.003906 458.4375 165.355469 454.71875 164.800781 C 451 164.246094 447.269531 163.78125 443.527344 163.410156 C 439.785156 163.035156 436.039062 162.757812 432.28125 162.566406 C 428.527344 162.378906 424.769531 162.28125 421.011719 162.277344 C 420.488281 162.277344 419.976562 162.226562 419.464844 162.125 C 418.953125 162.023438 418.460938 161.875 417.980469 161.675781 C 417.5 161.476562 417.042969 161.230469 416.609375 160.941406 C 416.175781 160.652344 415.777344 160.324219 415.410156 159.957031 C 415.042969 159.589844 414.714844 159.1875 414.425781 158.757812 C 414.136719 158.324219 413.890625 157.867188 413.691406 157.386719 C 413.492188 156.90625 413.34375 156.410156 413.242188 155.898438 C 413.140625 155.390625 413.089844 154.875 413.089844 154.355469 C 413.089844 153.835938 413.140625 153.320312 413.242188 152.808594 C 413.34375 152.296875 413.492188 151.800781 413.691406 151.320312 C 413.890625 150.839844 414.136719 150.382812 414.425781 149.953125 C 414.714844 149.519531 415.042969 149.117188 415.410156 148.75 C 415.777344 148.382812 416.175781 148.054688 416.609375 147.765625 C 417.042969 147.476562 417.5 147.234375 417.980469 147.035156 C 418.460938 146.835938 418.953125 146.683594 419.464844 146.582031 C 419.976562 146.480469 420.488281 146.429688 421.011719 146.429688 C 425.027344 146.4375 429.042969 146.539062 433.058594 146.742188 C 437.070312 146.945312 441.078125 147.246094 445.078125 147.644531 C 449.074219 148.042969 453.0625 148.539062 457.039062 149.136719 C 461.011719 149.730469 464.96875 150.421875 468.910156 151.210938 C 472.851562 152 476.769531 152.882812 480.667969 153.863281 C 484.566406 154.84375 488.4375 155.921875 492.28125 157.089844 C 496.125 158.261719 499.9375 159.527344 503.722656 160.882812 C 507.503906 162.242188 511.25 163.691406 514.960938 165.234375 C 518.675781 166.773438 522.347656 168.40625 525.976562 170.128906 C 529.609375 171.851562 533.195312 173.660156 536.738281 175.558594 C 540.28125 177.457031 543.777344 179.4375 547.222656 181.507812 C 550.667969 183.578125 554.0625 185.730469 557.402344 187.964844 C 560.742188 190.199219 564.027344 192.515625 567.253906 194.914062 C 570.480469 197.308594 573.648438 199.78125 576.753906 202.335938 C 579.859375 204.886719 582.898438 207.511719 585.875 210.214844 C 588.855469 212.914062 591.761719 215.6875 594.605469 218.53125 C 597.445312 221.375 600.214844 224.285156 602.914062 227.265625 C 605.613281 230.246094 608.234375 233.289062 610.785156 236.398438 C 613.335938 239.507812 615.804688 242.675781 618.199219 245.90625 C 620.59375 249.132812 622.910156 252.421875 625.140625 255.761719 C 627.375 259.105469 629.523438 262.503906 631.589844 265.949219 C 633.65625 269.398438 635.640625 272.894531 637.535156 276.441406 C 639.429688 279.988281 641.238281 283.578125 642.957031 287.210938 C 644.675781 290.847656 646.304688 294.519531 647.84375 298.234375 C 649.386719 301.949219 650.832031 305.699219 652.1875 309.484375 C 653.542969 313.269531 654.804688 317.085938 655.976562 320.933594 C 657.144531 324.777344 658.21875 328.652344 659.195312 332.550781 C 660.175781 336.453125 661.058594 340.375 661.847656 344.316406 C 662.632812 348.257812 663.324219 352.21875 663.914062 356.195312 C 664.507812 360.171875 665.003906 364.164062 665.402344 368.164062 C 665.796875 372.164062 666.097656 376.171875 666.296875 380.191406 C 666.5 384.207031 666.601562 388.222656 666.605469 392.246094 Z M 666.605469 392.246094 " fill-opacity="1" fill-rule="nonzero"/></g><path fill="#000000" d="M 413.089844 314.269531 C 413.089844 313.75 413.140625 313.234375 413.242188 312.722656 C 413.34375 312.210938 413.492188 311.71875 413.691406 311.234375 C 413.890625 310.753906 414.136719 310.300781 414.425781 309.867188 C 414.714844 309.433594 415.042969 309.035156 415.410156 308.664062 C 415.777344 308.296875 416.175781 307.96875 416.609375 307.679688 C 417.042969 307.390625 417.5 307.148438 417.980469 306.949219 C 418.460938 306.75 418.953125 306.597656 419.464844 306.496094 C 419.976562 306.394531 420.488281 306.34375 421.011719 306.34375 C 422.410156 306.351562 423.8125 306.390625 425.210938 306.464844 C 426.609375 306.539062 428.007812 306.648438 429.402344 306.789062 C 430.796875 306.933594 432.1875 307.109375 433.570312 307.320312 C 434.957031 307.53125 436.335938 307.773438 437.710938 308.050781 C 439.085938 308.332031 440.449219 308.640625 441.808594 308.988281 C 443.167969 309.332031 444.515625 309.710938 445.855469 310.121094 C 447.195312 310.535156 448.527344 310.976562 449.84375 311.453125 C 451.160156 311.929688 452.46875 312.4375 453.761719 312.980469 C 455.054688 313.519531 456.332031 314.09375 457.597656 314.695312 C 458.863281 315.296875 460.113281 315.933594 461.347656 316.597656 C 462.582031 317.261719 463.800781 317.953125 465 318.679688 C 466.199219 319.402344 467.382812 320.15625 468.546875 320.9375 C 469.707031 321.71875 470.851562 322.53125 471.976562 323.367188 C 473.101562 324.207031 474.203125 325.070312 475.285156 325.960938 C 476.367188 326.855469 477.425781 327.773438 478.460938 328.714844 C 479.496094 329.660156 480.511719 330.628906 481.5 331.621094 C 482.488281 332.617188 483.453125 333.632812 484.390625 334.675781 C 485.332031 335.714844 486.246094 336.777344 487.132812 337.863281 C 488.019531 338.949219 488.878906 340.054688 489.710938 341.183594 C 490.546875 342.3125 491.351562 343.457031 492.128906 344.625 C 492.90625 345.792969 493.652344 346.976562 494.371094 348.183594 C 495.089844 349.386719 495.777344 350.605469 496.4375 351.84375 C 497.097656 353.082031 497.726562 354.335938 498.324219 355.601562 C 498.921875 356.871094 499.488281 358.152344 500.023438 359.449219 C 500.558594 360.746094 501.0625 362.054688 501.53125 363.375 C 502.003906 364.695312 502.441406 366.027344 502.847656 367.371094 C 503.253906 368.710938 503.625 370.0625 503.964844 371.421875 C 504.304688 372.785156 504.613281 374.152344 504.886719 375.527344 C 505.15625 376.902344 505.394531 378.285156 505.601562 379.671875 C 505.808594 381.058594 505.976562 382.449219 506.113281 383.847656 C 506.25 385.242188 506.355469 386.640625 506.421875 388.039062 C 506.492188 389.441406 506.527344 390.84375 506.527344 392.246094 C 506.53125 392.765625 506.484375 393.285156 506.386719 393.796875 C 506.289062 394.308594 506.144531 394.808594 505.945312 395.289062 C 505.75 395.773438 505.507812 396.234375 505.21875 396.667969 C 504.929688 397.101562 504.601562 397.503906 504.230469 397.875 C 503.863281 398.242188 503.460938 398.570312 503.027344 398.859375 C 502.59375 399.148438 502.132812 399.390625 501.652344 399.589844 C 501.167969 399.785156 500.667969 399.933594 500.15625 400.03125 C 499.644531 400.128906 499.128906 400.175781 498.605469 400.167969 C 498.09375 400.140625 497.589844 400.0625 497.09375 399.941406 C 496.597656 399.820312 496.113281 399.652344 495.648438 399.445312 C 495.179688 399.234375 494.738281 398.984375 494.316406 398.695312 C 493.894531 398.402344 493.503906 398.078125 493.140625 397.714844 C 492.777344 397.351562 492.453125 396.960938 492.160156 396.539062 C 491.871094 396.117188 491.621094 395.671875 491.410156 395.207031 C 491.203125 394.738281 491.035156 394.253906 490.914062 393.757812 C 490.792969 393.261719 490.714844 392.757812 490.6875 392.246094 C 490.6875 391.097656 490.660156 389.953125 490.601562 388.808594 C 490.546875 387.667969 490.460938 386.523438 490.351562 385.382812 C 490.238281 384.242188 490.097656 383.105469 489.929688 381.972656 C 489.761719 380.839844 489.566406 379.710938 489.34375 378.589844 C 489.121094 377.464844 488.871094 376.347656 488.589844 375.238281 C 488.3125 374.125 488.007812 373.019531 487.675781 371.925781 C 487.34375 370.828125 486.984375 369.742188 486.601562 368.664062 C 486.214844 367.582031 485.804688 366.515625 485.367188 365.457031 C 484.925781 364.398438 484.464844 363.351562 483.976562 362.316406 C 483.484375 361.28125 482.972656 360.257812 482.433594 359.246094 C 481.894531 358.234375 481.328125 357.238281 480.742188 356.253906 C 480.152344 355.273438 479.539062 354.304688 478.90625 353.351562 C 478.269531 352.398438 477.609375 351.460938 476.929688 350.542969 C 476.246094 349.621094 475.542969 348.71875 474.816406 347.832031 C 474.09375 346.945312 473.34375 346.078125 472.578125 345.230469 C 471.808594 344.378906 471.019531 343.550781 470.210938 342.742188 C 469.402344 341.929688 468.574219 341.140625 467.722656 340.371094 C 466.875 339.601562 466.011719 338.851562 465.125 338.125 C 464.242188 337.398438 463.339844 336.691406 462.421875 336.007812 C 461.5 335.324219 460.566406 334.664062 459.613281 334.027344 C 458.664062 333.390625 457.695312 332.777344 456.714844 332.1875 C 455.734375 331.597656 454.738281 331.03125 453.726562 330.492188 C 452.71875 329.949219 451.695312 329.433594 450.664062 328.945312 C 449.628906 328.453125 448.582031 327.988281 447.523438 327.550781 C 446.46875 327.109375 445.398438 326.695312 444.320312 326.308594 C 443.246094 325.921875 442.15625 325.5625 441.0625 325.230469 C 439.96875 324.894531 438.863281 324.589844 437.753906 324.308594 C 436.644531 324.03125 435.527344 323.777344 434.402344 323.554688 C 433.28125 323.328125 432.152344 323.132812 431.023438 322.960938 C 429.890625 322.792969 428.753906 322.652344 427.613281 322.539062 C 426.476562 322.425781 425.332031 322.339844 424.191406 322.28125 C 423.046875 322.222656 421.902344 322.195312 420.757812 322.191406 C 420.246094 322.175781 419.746094 322.113281 419.246094 322 C 418.75 321.886719 418.269531 321.726562 417.804688 321.519531 C 417.339844 321.3125 416.894531 321.0625 416.476562 320.769531 C 416.058594 320.480469 415.675781 320.152344 415.320312 319.785156 C 414.964844 319.417969 414.648438 319.019531 414.371094 318.59375 C 414.09375 318.167969 413.859375 317.714844 413.667969 317.242188 C 413.476562 316.769531 413.332031 316.285156 413.234375 315.785156 C 413.136719 315.285156 413.089844 314.777344 413.089844 314.269531 Z M 413.089844 314.269531 " fill-opacity="1" fill-rule="nonzero"/><g clip-path="url(#133d32300f)"><path fill="#000000" d="M 639.476562 561.515625 L 639.476562 576.859375 C 639.464844 579.828125 639.164062 582.765625 638.574219 585.675781 C 637.988281 588.585938 637.121094 591.410156 635.980469 594.152344 C 634.839844 596.890625 633.441406 599.496094 631.789062 601.960938 C 630.140625 604.425781 628.265625 606.710938 626.164062 608.808594 L 584.710938 649.945312 C 582.644531 652.003906 580.394531 653.84375 577.96875 655.460938 C 575.539062 657.082031 572.980469 658.453125 570.285156 659.574219 C 567.589844 660.691406 564.8125 661.542969 561.953125 662.121094 C 559.09375 662.699219 556.203125 662.996094 553.285156 663.011719 L 551.433594 663.011719 C 544.851562 662.726562 538.277344 662.292969 531.714844 661.703125 C 525.152344 661.113281 518.605469 660.375 512.078125 659.480469 C 505.546875 658.589844 499.042969 657.542969 492.5625 656.351562 C 486.085938 655.15625 479.636719 653.8125 473.21875 652.316406 C 466.800781 650.820312 460.421875 649.179688 454.078125 647.390625 C 447.738281 645.597656 441.441406 643.660156 435.1875 641.578125 C 428.9375 639.496094 422.738281 637.269531 416.589844 634.898438 C 410.441406 632.527344 404.351562 630.015625 398.320312 627.363281 C 392.285156 624.707031 386.320312 621.914062 380.417969 618.984375 C 374.515625 616.054688 368.683594 612.988281 362.925781 609.785156 C 357.164062 606.585938 351.480469 603.25 345.875 599.785156 C 340.269531 596.320312 334.75 592.726562 329.308594 589.003906 C 323.871094 585.285156 318.519531 581.4375 313.261719 577.46875 C 308 573.496094 302.835938 569.40625 297.765625 565.195312 C 292.695312 560.984375 287.722656 556.660156 282.855469 552.21875 C 277.984375 547.777344 273.21875 543.226562 268.5625 538.5625 C 263.902344 533.902344 259.355469 529.132812 254.917969 524.261719 C 250.480469 519.386719 246.15625 514.414062 241.949219 509.339844 C 237.742188 504.265625 233.65625 499.097656 229.6875 493.832031 C 225.722656 488.566406 221.878906 483.214844 218.160156 477.773438 C 214.441406 472.328125 210.851562 466.804688 207.386719 461.195312 C 203.925781 455.585938 200.59375 449.898438 197.398438 444.136719 C 194.199219 438.371094 191.136719 432.535156 188.207031 426.628906 C 185.277344 420.722656 182.488281 414.753906 179.839844 408.71875 C 177.1875 402.683594 174.679688 396.589844 172.308594 390.4375 C 169.941406 384.285156 167.71875 378.078125 165.636719 371.824219 C 163.554688 365.570312 161.621094 359.269531 159.832031 352.921875 C 158.046875 346.578125 156.40625 340.195312 154.914062 333.773438 C 153.421875 327.351562 152.078125 320.898438 150.886719 314.414062 C 149.691406 307.929688 148.652344 301.421875 147.761719 294.890625 C 146.871094 288.359375 146.128906 281.808594 145.542969 275.242188 C 144.957031 268.675781 144.523438 262.097656 144.238281 255.511719 C 144.078125 252.402344 144.242188 249.3125 144.730469 246.238281 C 145.21875 243.164062 146.019531 240.175781 147.140625 237.269531 C 148.257812 234.367188 149.664062 231.609375 151.363281 229 C 153.058594 226.394531 155.011719 223.992188 157.214844 221.792969 L 198.332031 180.738281 C 200.429688 178.640625 202.710938 176.765625 205.175781 175.117188 C 207.640625 173.464844 210.242188 172.066406 212.980469 170.925781 C 215.71875 169.78125 218.542969 168.917969 221.449219 168.328125 C 224.359375 167.738281 227.296875 167.433594 230.261719 167.421875 L 245.34375 167.421875 C 247.613281 167.425781 249.875 167.597656 252.117188 167.941406 C 254.363281 168.285156 256.570312 168.796875 258.738281 169.476562 C 260.90625 170.152344 263.011719 170.988281 265.054688 171.984375 C 267.097656 172.980469 269.050781 174.125 270.921875 175.414062 C 272.792969 176.707031 274.554688 178.128906 276.207031 179.6875 C 277.863281 181.242188 279.390625 182.914062 280.796875 184.703125 C 282.199219 186.492188 283.457031 188.375 284.578125 190.351562 C 285.695312 192.328125 286.660156 194.378906 287.46875 196.503906 L 323.867188 293.277344 C 324.59375 295.242188 325.179688 297.246094 325.628906 299.292969 C 326.078125 301.335938 326.386719 303.402344 326.546875 305.492188 C 326.710938 307.578125 326.726562 309.667969 326.597656 311.757812 C 326.472656 313.847656 326.199219 315.917969 325.785156 317.972656 C 325.371094 320.023438 324.816406 322.039062 324.121094 324.015625 C 323.429688 325.988281 322.601562 327.90625 321.640625 329.769531 C 320.683594 331.628906 319.597656 333.414062 318.390625 335.125 C 317.183594 336.835938 315.863281 338.453125 314.429688 339.980469 L 299.347656 355.914062 C 298.210938 357.113281 297.183594 358.402344 296.265625 359.777344 C 295.347656 361.152344 294.550781 362.597656 293.882812 364.109375 C 293.210938 365.625 292.671875 367.183594 292.269531 368.785156 C 291.867188 370.390625 291.601562 372.019531 291.476562 373.667969 C 291.347656 375.316406 291.363281 376.96875 291.519531 378.613281 C 291.675781 380.261719 291.972656 381.882812 292.40625 383.480469 C 292.839844 385.078125 293.40625 386.625 294.105469 388.125 C 294.804688 389.625 295.625 391.054688 296.570312 392.414062 C 304.519531 403.972656 312.972656 415.15625 321.929688 425.953125 C 330.882812 436.753906 340.308594 447.128906 350.195312 457.082031 C 360.085938 467.03125 370.402344 476.519531 381.144531 485.542969 C 391.886719 494.5625 403.011719 503.085938 414.523438 511.105469 C 415.882812 511.992188 417.308594 512.757812 418.796875 513.40625 C 420.285156 514.054688 421.816406 514.574219 423.394531 514.964844 C 424.96875 515.355469 426.566406 515.613281 428.183594 515.738281 C 429.804688 515.859375 431.421875 515.847656 433.039062 515.699219 C 434.65625 515.550781 436.25 515.269531 437.820312 514.855469 C 439.386719 514.4375 440.914062 513.894531 442.390625 513.226562 C 443.871094 512.554688 445.28125 511.765625 446.628906 510.859375 C 447.976562 509.949219 449.238281 508.9375 450.414062 507.816406 L 466.589844 492.476562 C 468.117188 491.042969 469.734375 489.722656 471.445312 488.515625 C 473.152344 487.304688 474.9375 486.222656 476.796875 485.261719 C 478.65625 484.300781 480.574219 483.472656 482.546875 482.777344 C 484.523438 482.082031 486.535156 481.527344 488.585938 481.113281 C 490.636719 480.699219 492.707031 480.425781 494.796875 480.300781 C 496.886719 480.171875 498.972656 480.191406 501.058594 480.351562 C 503.148438 480.515625 505.210938 480.820312 507.257812 481.269531 C 509.300781 481.71875 511.304688 482.308594 513.265625 483.035156 L 609.988281 519.453125 C 612.128906 520.242188 614.195312 521.191406 616.1875 522.296875 C 618.183594 523.402344 620.085938 524.648438 621.890625 526.042969 C 623.695312 527.4375 625.386719 528.957031 626.960938 530.605469 C 628.539062 532.253906 629.980469 534.015625 631.289062 535.882812 C 632.597656 537.75 633.761719 539.707031 634.773438 541.75 C 635.789062 543.792969 636.640625 545.902344 637.335938 548.074219 C 638.027344 550.25 638.554688 552.460938 638.914062 554.714844 C 639.273438 556.96875 639.460938 559.234375 639.476562 561.515625 Z M 639.476562 561.515625 " fill-opacity="1" fill-rule="nonzero"/></g></svg>