<svg width="52" height="51" viewBox="0 0 52 51" fill="none" xmlns="http://www.w3.org/2000/svg">
<path d="M34.008 19.2912L26 27.1196L17.992 19.2912L14.3 22.875L26 34.3125L37.7 22.875L34.008 19.2912ZM26 0C11.648 0 0 11.3867 0 25.4167C0 39.4466 11.648 50.8333 26 50.8333C40.352 50.8333 52 39.4466 52 25.4167C52 11.3867 40.352 0 26 0ZM26 45.75C14.508 45.75 5.2 36.6508 5.2 25.4167C5.2 14.1825 14.508 5.08333 26 5.08333C37.492 5.08333 46.8 14.1825 46.8 25.4167C46.8 36.6508 37.492 45.75 26 45.75Z" fill="white"/>
</svg>
