<svg xmlns="http://www.w3.org/2000/svg" xmlns:xlink="http://www.w3.org/1999/xlink" width="1080" zoomAndPan="magnify" viewBox="0 0 810 809.999993" height="1080" preserveAspectRatio="xMidYMid meet" version="1.0"><defs><clipPath id="49d5b66bf9"><path d="M 142.417969 142.417969 L 667.417969 142.417969 L 667.417969 667.417969 L 142.417969 667.417969 Z M 142.417969 142.417969 " clip-rule="nonzero"/></clipPath></defs><path fill="#ffffff" d="M 546.601562 494.585938 C 545.765625 486.285156 541.910156 478.605469 535.746094 472.964844 L 501.304688 441.480469 C 493.945312 434.746094 484.042969 431.601562 474.132812 432.847656 C 464.449219 434.058594 455.851562 439.402344 450.546875 447.511719 C 450.421875 447.707031 450.289062 447.910156 450.164062 448.113281 C 446.136719 454.542969 440.269531 458.519531 433.183594 459.613281 L 432.910156 459.660156 C 422.636719 461.128906 409.761719 456.960938 395.425781 445.644531 L 388.273438 438.742188 C 381.671875 432.367188 372.214844 422.613281 364.667969 412.382812 C 354.421875 398.507812 350.015625 386.96875 351.183594 377.089844 C 352.097656 369.425781 356.4375 362.96875 363.394531 358.878906 C 363.605469 358.753906 363.808594 358.636719 364.011719 358.511719 C 372.253906 353.441406 377.839844 344.996094 379.328125 335.335938 C 380.851562 325.472656 377.988281 315.488281 371.464844 307.941406 L 340.953125 272.625 C 335.492188 266.304688 327.933594 262.238281 319.652344 261.179688 C 318.21875 260.992188 316.78125 260.898438 315.347656 260.898438 C 313.636719 260.898438 311.929688 261.03125 310.242188 261.289062 C 305.257812 262.058594 300.425781 263.996094 296.285156 266.890625 C 279.21875 278.804688 268.441406 297.109375 264.253906 321.285156 C 261.703125 336.03125 263.660156 352.933594 270.082031 371.511719 C 275.425781 387 283.839844 403.589844 295.082031 420.832031 C 314.402344 450.476562 335.6875 471.988281 335.898438 472.199219 L 336.109375 472.417969 C 336.320312 472.636719 357.246094 494.539062 386.3125 514.664062 C 403.230469 526.382812 419.585938 535.253906 434.917969 541.042969 C 453.308594 547.980469 470.148438 550.414062 484.957031 548.277344 C 509.238281 544.765625 527.839844 534.503906 540.234375 517.785156 C 545.164062 511.121094 547.425781 502.878906 546.601562 494.585938 " fill-opacity="1" fill-rule="nonzero"/><g clip-path="url(#49d5b66bf9)"><path fill="#ffffff" d="M 494.140625 624.839844 C 489.761719 626.617188 485.339844 628.265625 480.882812 629.777344 C 480.398438 629.871094 479.910156 629.996094 479.433594 630.160156 C 455.40625 638.082031 430.351562 642.097656 404.960938 642.097656 C 374.164062 642.097656 344.136719 636.253906 315.726562 624.738281 C 286.320312 612.808594 259.929688 595.28125 237.285156 572.644531 C 236.195312 571.554688 235.117188 570.445312 234.046875 569.335938 C 212.972656 547.449219 196.546875 522.191406 185.195312 494.203125 C 173.675781 465.792969 167.832031 435.769531 167.832031 404.960938 C 167.832031 374.164062 173.675781 344.136719 185.195312 315.71875 C 197.101562 286.359375 214.59375 260 237.191406 237.386719 C 237.222656 237.347656 237.253906 237.316406 237.285156 237.285156 C 237.308594 237.269531 237.324219 237.246094 237.339844 237.230469 C 259.96875 214.617188 286.34375 197.109375 315.726562 185.195312 C 344.136719 173.667969 374.164062 167.832031 404.960938 167.832031 C 435.769531 167.832031 465.792969 173.667969 494.203125 185.195312 C 518.050781 194.863281 539.90625 208.210938 559.390625 224.988281 C 559.496094 225.082031 559.605469 225.175781 559.714844 225.261719 C 560.316406 225.785156 560.917969 226.316406 561.519531 226.839844 C 561.722656 227.015625 561.925781 227.195312 562.128906 227.375 C 562.632812 227.828125 563.140625 228.28125 563.648438 228.742188 C 563.921875 228.992188 564.195312 229.242188 564.46875 229.484375 C 564.90625 229.890625 565.34375 230.285156 565.78125 230.683594 C 566.105469 230.988281 566.425781 231.285156 566.746094 231.589844 C 567.136719 231.957031 567.527344 232.316406 567.910156 232.683594 C 568.269531 233.019531 568.621094 233.351562 568.96875 233.695312 C 569.328125 234.039062 569.6875 234.382812 570.046875 234.734375 C 570.414062 235.085938 570.773438 235.4375 571.132812 235.789062 C 571.523438 236.171875 571.90625 236.550781 572.292969 236.941406 C 572.511719 237.152344 572.730469 237.371094 572.941406 237.589844 C 595.40625 260.125 612.824219 286.328125 624.714844 315.480469 C 626.546875 319.964844 628.234375 324.492188 629.777344 329.054688 C 629.878906 329.539062 630.003906 330.015625 630.160156 330.5 C 638.082031 354.523438 642.097656 379.570312 642.097656 404.960938 C 642.097656 435.769531 636.253906 465.792969 624.730469 494.203125 C 615.421875 517.167969 602.695312 538.289062 586.785156 557.226562 C 586.761719 557.25 586.746094 557.273438 586.722656 557.296875 C 586.144531 557.984375 585.558594 558.671875 584.972656 559.359375 C 584.855469 559.496094 584.734375 559.628906 584.609375 559.769531 C 584.117188 560.347656 583.617188 560.917969 583.117188 561.480469 C 582.914062 561.714844 582.703125 561.949219 582.5 562.183594 C 582.078125 562.65625 581.648438 563.132812 581.222656 563.609375 C 580.949219 563.914062 580.667969 564.21875 580.394531 564.523438 C 580.019531 564.929688 579.644531 565.335938 579.269531 565.742188 C 578.949219 566.097656 578.613281 566.449219 578.289062 566.800781 C 577.953125 567.160156 577.617188 567.519531 577.273438 567.878906 C 576.914062 568.261719 576.554688 568.636719 576.1875 569.015625 C 575.867188 569.351562 575.546875 569.6875 575.230469 570.015625 C 574.855469 570.40625 574.472656 570.789062 574.097656 571.171875 C 573.738281 571.539062 573.378906 571.898438 573.019531 572.253906 C 572.785156 572.496094 572.542969 572.738281 572.308594 572.972656 C 549.699219 595.5 523.402344 612.957031 494.140625 624.839844 Z M 594.453125 586.488281 C 594.84375 586.082031 595.242188 585.667969 595.632812 585.253906 C 596.015625 584.847656 596.390625 584.453125 596.765625 584.046875 C 597.132812 583.664062 597.488281 583.273438 597.847656 582.882812 C 598.261719 582.4375 598.675781 581.984375 599.082031 581.542969 C 599.394531 581.199219 599.707031 580.863281 600.011719 580.519531 C 600.480469 580.003906 600.9375 579.480469 601.40625 578.957031 C 601.640625 578.691406 601.882812 578.429688 602.117188 578.15625 C 602.65625 577.546875 603.195312 576.929688 603.726562 576.3125 C 603.871094 576.140625 604.027344 575.960938 604.175781 575.789062 C 604.800781 575.066406 605.417969 574.339844 606.042969 573.605469 C 606.089844 573.542969 606.144531 573.480469 606.199219 573.417969 C 624.050781 552.171875 638.292969 528.464844 648.644531 502.699219 C 661.253906 471.316406 667.605469 438.203125 667.511719 404.265625 C 667.417969 370.332031 660.894531 337.242188 648.117188 305.929688 C 635.0625 273.929688 616 245.144531 591.449219 220.363281 C 591.410156 220.316406 591.371094 220.269531 591.324219 220.230469 C 591.175781 220.074219 591.023438 219.925781 590.875 219.769531 C 590.75 219.652344 590.640625 219.527344 590.515625 219.410156 C 590.382812 219.277344 590.242188 219.144531 590.101562 219.003906 C 589.914062 218.808594 589.71875 218.613281 589.523438 218.425781 C 589.304688 218.207031 589.085938 218.003906 588.875 217.785156 C 588.460938 217.382812 588.039062 216.976562 587.628906 216.570312 C 587.246094 216.203125 586.871094 215.835938 586.488281 215.46875 C 586.082031 215.078125 585.667969 214.6875 585.261719 214.296875 C 584.855469 213.917969 584.445312 213.535156 584.039062 213.152344 C 583.65625 212.792969 583.28125 212.441406 582.898438 212.089844 C 582.4375 211.667969 581.984375 211.246094 581.527344 210.835938 C 581.199219 210.53125 580.863281 210.226562 580.535156 209.929688 C 580.003906 209.453125 579.472656 208.976562 578.941406 208.507812 C 578.683594 208.273438 578.429688 208.046875 578.171875 207.824219 C 577.546875 207.277344 576.921875 206.730469 576.296875 206.191406 C 576.132812 206.042969 575.96875 205.902344 575.804688 205.761719 C 575.066406 205.121094 574.324219 204.5 573.582031 203.867188 C 573.535156 203.828125 573.488281 203.789062 573.433594 203.75 C 552.1875 185.878906 528.472656 171.632812 502.699219 161.277344 C 471.316406 148.667969 438.1875 142.332031 404.265625 142.417969 C 370.332031 142.503906 337.25 149.035156 305.929688 161.808594 C 273.53125 175.027344 244.433594 194.402344 219.441406 219.386719 C 219.433594 219.394531 219.425781 219.402344 219.410156 219.410156 C 219.394531 219.425781 219.386719 219.441406 219.371094 219.457031 C 194.300781 244.542969 174.886719 273.75 161.667969 306.269531 C 148.894531 337.710938 142.417969 370.910156 142.417969 404.960938 C 142.417969 439.015625 148.894531 472.222656 161.667969 503.660156 C 174.480469 535.183594 193.113281 563.59375 217.078125 588.148438 C 217.847656 588.945312 218.628906 589.734375 219.410156 590.515625 C 244.503906 615.609375 273.726562 635.039062 306.269531 648.253906 C 337.710938 661.035156 370.917969 667.503906 404.960938 667.503906 C 439.015625 667.503906 472.222656 661.035156 503.660156 648.253906 C 535.792969 635.203125 564.6875 616.09375 589.5625 591.457031 C 589.601562 591.417969 589.65625 591.371094 589.703125 591.324219 C 589.859375 591.167969 590.023438 591.007812 590.1875 590.84375 C 590.296875 590.734375 590.40625 590.625 590.515625 590.515625 C 590.648438 590.382812 590.78125 590.25 590.914062 590.117188 C 591.105469 589.914062 591.308594 589.71875 591.503906 589.523438 C 591.714844 589.304688 591.925781 589.085938 592.136719 588.875 C 592.550781 588.460938 592.957031 588.039062 593.363281 587.628906 C 593.730469 587.246094 594.089844 586.871094 594.453125 586.488281 " fill-opacity="1" fill-rule="nonzero"/></g></svg>